<?xml version="1.0" encoding="utf-8"?>
<!-- Generator: Adobe Illustrator 28.0.0, SVG Export Plug-In . SVG Version: 6.00 Build 0)  -->
<svg version="1.1" id="Capa_1" xmlns="http://www.w3.org/2000/svg" xmlns:xlink="http://www.w3.org/1999/xlink" x="0px" y="0px"
	 viewBox="0 0 500 500" style="enable-background:new 0 0 500 500;" xml:space="preserve">
<style type="text/css">
	.st0{fill:#FFFFFF;}
</style>
<g>
	<path class="st0" d="M470.59,260.56c-1.35-4.91-1.35-10.11,0-15.03l13.22-48.17c0.97-3.52-0.47-7.16-3.59-9.07
		c-3.11-1.9-7.01-1.53-9.7,0.93l-60.42,55.27c-25.05-24.83-54.71-43.58-86.72-54.87l8.05-51c0.45-2.92-0.73-5.86-3.08-7.66
		c-2.35-1.81-5.49-2.19-8.24-0.99c0,0-118.75,52.72-118.75,52.72c-2.78,1.23-6.4,1.54-9.35,2.35c-3.39,0.94-6.75,1.95-10.08,3.05
		c-23,7.56-44.68,18.79-64.18,33.14c-10.15,7.47-19.69,15.76-28.56,24.7c-3.88,3.91-3.88,10.26,0,14.17
		c16.78,16.91,35.96,31.43,57.01,42.63c17.83,9.49,36.99,16.65,56.72,21c15.51,3.45,31.48,5.19,47.46,5.19
		c14.78,0,29.5-1.49,43.92-4.44l71.91,11.4c0.44,0.07,0.87,0.1,1.3,0.1c2.59,0,5.02-1.24,6.57-3.4c1.8-2.53,2.01-5.8,0.55-8.53
		L361.24,299c17.6-10.15,34.04-22.71,48.86-37.41l60.42,55.28c1.55,1.41,3.49,2.14,5.46,2.14c1.46,0,2.92-0.4,4.25-1.21
		c3.11-1.91,4.55-5.55,3.58-9.06L470.59,260.56z M311.5,185.86c-0.78-0.23-1.55-0.48-2.34-0.69c-19.13-5.32-38.91-8.02-58.79-8.02
		c-2.1,0-4.2,0.03-6.3,0.09l73.98-32.84L311.5,185.86z M171.52,205.04c0.09,0.15,0.17,0.29,0.26,0.44
		c8.36,14.16,12.85,30.53,12.96,46.97c0.11,16.85-4.4,33.66-12.96,48.17c-0.09,0.15-0.17,0.29-0.26,0.44
		c-26.58-10.88-50.77-27.01-71.99-48.01C120.76,232.04,144.95,215.91,171.52,205.04z M359.77,322.42l-36.76-5.83
		c9.35-3.28,18.5-7.2,27.4-11.71L359.77,322.42z M305.9,309.06c-32.54,9.06-67.45,9.97-100.32,2.67
		c-7.52-1.66-15.01-3.76-22.34-6.27c0.08-0.14,0.14-0.28,0.22-0.42c9.95-17.66,14.59-38.1,13.4-58.32
		c-0.95-16.11-5.62-32.02-13.62-46.08c7.16-2.45,14.41-4.5,21.65-6.1c1.52-0.35,3.05-0.66,4.58-0.97c13.4-2.71,27.14-4.09,40.96-4.1
		c18.74,0.01,37.39,2.55,55.43,7.57c35.23,9.78,68,29.02,95.15,55.79l-0.24,0.22l0.25,0.22
		C373.89,280.04,341.13,299.28,305.9,309.06z M458.71,263.83l9.35,34.09l-49.03-44.86l49.03-44.86l-9.35,34.08
		C456.77,249.32,456.77,256.78,458.71,263.83z"/>
	<path class="st0" d="M155.21,229.36c-6.62,0-12.01,5.39-12.01,12.01c0,6.62,5.39,12.01,12.01,12.01c6.62,0,12.01-5.39,12.01-12.01
		C167.21,234.75,161.83,229.36,155.21,229.36z"/>
	<path class="st0" d="M113.12,388.96c-3.02-1-6.32,0.06-8.21,2.62l-21.2,28.78c-2.02,2.74-1.43,6.6,1.31,8.62
		c2.74,2.02,6.6,1.44,8.62-1.31l12.22-16.58v20.51c0,17.54-14.27,31.81-31.81,31.81c-17.54,0-31.81-14.27-31.81-31.81v-98.3
		c8.12-2.61,14.01-10.23,14.01-19.2c0-8.97-5.9-16.59-14.01-19.2V30.43c0-3.4-2.76-6.16-6.16-6.16c-3.4,0-6.16,2.76-6.16,6.16V294.9
		c-8.12,2.61-14.01,10.23-14.01,19.2c0,8.98,5.9,16.59,14.01,19.2v98.3c0,24.33,19.8,44.13,44.13,44.13
		c24.33,0,44.13-19.8,44.13-44.13v-35.66C118.17,392.76,116.14,389.96,113.12,388.96z M36.07,306.25c4.33,0,7.85,3.52,7.85,7.85
		c0,4.33-3.52,7.85-7.85,7.85s-7.85-3.52-7.85-7.85C28.22,309.77,31.74,306.25,36.07,306.25z"/>
</g>
</svg>
