<?xml version="1.0" encoding="utf-8"?>
<!-- Generator: Adobe Illustrator 28.0.0, SVG Export Plug-In . SVG Version: 6.00 Build 0)  -->
<svg version="1.1" id="Capa_1" xmlns="http://www.w3.org/2000/svg" xmlns:xlink="http://www.w3.org/1999/xlink" x="0px" y="0px"
	 viewBox="0 0 500 500" style="enable-background:new 0 0 500 500;" xml:space="preserve">
<style type="text/css">
	.st0{fill:#FFFFFF;}
</style>
<g>
	<path class="st0" d="M481.3,361.06l-22.89,14.18c-13.14,8.14-32.22,8.14-45.36,0l-22.87-14.18c-16.93-10.49-40.57-10.49-57.5,0
		l-22.88,14.18c-13.14,8.15-32.21,8.15-45.36,0l-22.87-14.18c-16.93-10.49-40.57-10.49-57.5,0l-22.87,14.18
		c-13.14,8.15-32.22,8.15-45.36,0l-22.86-14.17c-16.93-10.49-40.57-10.49-57.5,0l-22.85,14.17c-2.7,1.68-3.53,5.22-1.86,7.93
		c1.68,2.7,5.22,3.54,7.93,1.86l22.85-14.17c13.14-8.15,32.23-8.15,45.37,0l22.86,14.17c16.93,10.49,40.57,10.5,57.5,0l22.87-14.18
		c13.14-8.15,32.22-8.15,45.37,0l22.87,14.18c16.93,10.49,40.57,10.49,57.49,0l22.88-14.18c13.14-8.14,32.22-8.15,45.36,0
		l22.87,14.18c8.47,5.25,18.61,7.87,28.75,7.87c10.14,0,20.28-2.62,28.74-7.87l22.89-14.18c2.7-1.67,3.54-5.22,1.86-7.93
		C487.56,360.22,484.01,359.38,481.3,361.06z"/>
	<path class="st0" d="M15.66,278.71l20.95,0c0.25,0,0.52,0,0.81,0c5.45,0,17.54-0.32,22.24-0.83c20.72-2.25,27.15-7.26,39.72-18.38
		c18.12-16.03,31.62-37.16,44.68-57.59c11.76-18.41,22.87-35.8,35.97-46.98c19.79-16.91,46.93-36.32,81.36-36.32
		c17.2,0,34.05,4.13,49.17,11.76c-3.85-0.5-7.75-0.77-11.67-0.77c-50.82,0-93.76,41.18-93.76,89.93c0,26.46,7.62,49.42,22.64,68.24
		c0.62,0.78,15.39,19.14,31.36,26.09c14.3,6.23,37.66,9.91,56.45-0.21l23.18-14.36c13.14-8.14,32.22-8.15,45.36,0l22.87,14.18
		c8.47,5.25,18.61,7.87,28.75,7.87c10.14,0,20.28-2.62,28.74-7.87l22.89-14.18c2.7-1.67,3.54-5.22,1.86-7.93
		c-1.67-2.7-5.22-3.54-7.93-1.86l-22.89,14.18c-13.14,8.14-32.22,8.14-45.36,0l-22.88-14.18c-16.92-10.49-40.57-10.49-57.49,0
		l-22.72,14.08c-14.17,7.54-33.42,5.3-46.25-0.29c-13.37-5.82-26.82-22.54-26.95-22.71c-13.35-16.73-20.12-37.27-20.12-61.06
		c0-39.37,32.32-73.06,72.51-77.82c-16.74,8.81-28.72,25.51-30.89,45.17c-1.84,16.68,3.22,32.72,14.25,45.17
		c11.05,12.48,27.02,19.75,43.81,19.94c11.43,0.16,19.8-4.34,27.14-8.29c7.45-4,13.89-7.47,23.35-6.92
		c19.11,1.1,30.54,16.26,32.2,42.69c0.19,3.05,2.72,5.4,5.74,5.4c0.12,0,0.24,0,0.37-0.01c3.17-0.2,5.58-2.93,5.39-6.11
		c-2.9-46.19-31.06-52.78-43.03-53.46c-12.74-0.72-21.61,4.05-29.46,8.27c-6.9,3.71-12.88,6.92-21.19,6.92c-0.12,0-0.25,0-0.37,0
		c-13.54-0.15-26.42-6.01-35.32-16.06c-8.84-9.98-12.9-22.87-11.42-36.27c2.42-22.04,20.24-39.46,42.36-41.42
		c10.88-0.96,21.38,1.69,30.36,7.67c0.1,0.06,0.2,0.1,0.3,0.16c0.19,0.11,0.38,0.22,0.57,0.3c0.16,0.07,0.31,0.12,0.47,0.18
		c0.19,0.06,0.38,0.12,0.57,0.17c0.17,0.04,0.34,0.06,0.51,0.09c0.19,0.03,0.38,0.05,0.57,0.05c0.17,0.01,0.34,0,0.51-0.01
		c0.2-0.01,0.39-0.03,0.58-0.06c0.17-0.03,0.33-0.06,0.49-0.1c0.19-0.05,0.38-0.1,0.56-0.17c0.17-0.06,0.33-0.13,0.49-0.21
		c0.17-0.08,0.33-0.16,0.49-0.26c0.17-0.1,0.33-0.21,0.49-0.33c0.08-0.06,0.17-0.11,0.26-0.17c0.06-0.05,0.11-0.11,0.16-0.17
		c0.15-0.13,0.28-0.27,0.41-0.42c0.14-0.15,0.26-0.3,0.38-0.46c0.05-0.06,0.1-0.11,0.15-0.18c0.06-0.08,0.09-0.18,0.14-0.26
		c0.11-0.18,0.2-0.36,0.29-0.55c0.08-0.17,0.14-0.33,0.2-0.5c0.06-0.18,0.12-0.36,0.16-0.54c0.04-0.18,0.08-0.37,0.1-0.55
		c0.02-0.18,0.04-0.36,0.05-0.54c0.01-0.19,0.01-0.37,0-0.55c-0.01-0.19-0.03-0.37-0.06-0.55c-0.03-0.18-0.06-0.35-0.11-0.53
		c-0.05-0.18-0.1-0.36-0.16-0.54c-0.06-0.18-0.14-0.35-0.22-0.52c-0.08-0.16-0.16-0.32-0.25-0.48c-0.11-0.18-0.22-0.35-0.35-0.52
		c-0.06-0.08-0.1-0.17-0.16-0.24c-0.16-0.2-0.33-0.37-0.43-0.47c-0.04-0.05-0.09-0.09-0.13-0.13c0,0,0-0.01-0.01-0.01l-0.09-0.09
		c-22.73-24.22-54.78-38.12-88-38.12c-38.2,0-67.54,20.88-88.84,39.07c-14.4,12.3-25.96,30.38-38.19,49.53
		c-12.63,19.77-25.69,40.21-42.61,55.17c-11.19,9.91-15.38,13.61-33.33,15.56c-4.21,0.46-16.48,0.8-21.77,0.76l-20.99,0
		c-3.18,0-5.76,2.58-5.76,5.76C9.91,276.13,12.48,278.71,15.66,278.71z"/>
</g>
</svg>
