<?xml version="1.0" encoding="utf-8"?>
<!-- Generator: Adobe Illustrator 28.0.0, SVG Export Plug-In . SVG Version: 6.00 Build 0)  -->
<svg version="1.1" id="Capa_1" xmlns="http://www.w3.org/2000/svg" xmlns:xlink="http://www.w3.org/1999/xlink" x="0px" y="0px"
	 viewBox="0 0 500 500" style="enable-background:new 0 0 500 500;" xml:space="preserve">
<style type="text/css">
	.st0{fill:#FFFFFF;}
</style>
<path class="st0" d="M437.02,62.99c-11.66-11.66-30.33-12.93-43.43-2.96c-1.84,1.4-3.56,3.11-5.41,5.38
	c-47.68,58.47-52.69,79.8-50.56,88.47l-15.59,15.59c-9.61-52.8-28.63-103.58-56.38-149.79c-3.45-5.75-9.53-9.18-16.26-9.17
	c-6.73,0-12.81,3.43-16.26,9.17c-9.15,15.24-17.36,30.99-24.59,47.14c-0.07,0.14-0.13,0.27-0.18,0.42
	c-25.55,57.2-38.89,119.47-38.89,182.77c0,22.52,1.7,44.92,5.02,67l-20.62,20.62c-8.67-2.13-30,2.88-88.47,50.56
	c-2.27,1.85-3.98,3.57-5.38,5.41c-9.97,13.1-8.7,31.77,2.96,43.43c6.42,6.42,14.92,9.67,23.43,9.67c7.76,0,15.53-2.7,21.75-8.14
	c1.3-1.13,2.36-2.36,3.24-3.4c4.41-5.27,19.78-23.95,32.45-42.87c15.03-22.45,20.98-37.13,18.48-46.1l14.61-14.61
	c6.31,34.18,16.57,67.51,30.58,99.28c0.16,0.56,0.38,1.09,0.69,1.57c7.31,16.41,15.63,32.41,24.92,47.89
	c3.45,5.74,9.53,9.17,16.26,9.17c0,0,0,0,0,0c6.73,0,12.81-3.43,16.26-9.17c9.42-15.69,17.83-31.92,25.22-48.57
	c0.05-0.12,0.11-0.23,0.15-0.35c25.15-56.82,38.29-118.61,38.29-181.4c0-22.16-1.65-44.19-4.87-65.93l21.73-21.73
	c1.32,0.37,2.76,0.56,4.33,0.56c9.12,0,22.62-6.22,41.77-19.04c18.92-12.67,37.6-28.04,42.87-32.45l0,0
	c1.05-0.88,2.27-1.95,3.4-3.24C449.96,95.11,449.29,75.26,437.02,62.99z M132.93,386.95c-12.18,17.99-26.63,35.53-30.76,40.48l0,0
	c-0.6,0.72-1.26,1.47-1.93,2.06c-8.31,7.27-20.94,6.83-28.76-0.98c-7.42-7.42-8.23-19.3-1.89-27.64c0.81-1.07,1.9-2.14,3.41-3.37
	c4.98-4.06,22.6-18.23,40.36-30.13c24.39-16.34,33.65-18.06,36.47-18.06c0.45,0,0.74,0.04,0.89,0.08
	C151.09,350.41,152.57,357.95,132.93,386.95z M243.44,25.87c1.81-3.01,4.76-3.34,5.95-3.34c1.19,0,4.14,0.32,5.95,3.34
	c7.32,12.19,14.01,24.71,20.06,37.5h-52.02C229.44,50.58,236.13,38.06,243.44,25.87z M181.5,250c0-60.4,12.49-119.83,36.41-174.6
	h62.96c14.58,33.37,24.9,68.48,30.75,104.48l-21.37,21.37c-7.67-11.54-20.77-19.17-35.63-19.17h-9.22
	c-23.58,0-42.76,19.18-42.76,42.76v52.33c0,3.58,0.49,7.04,1.32,10.37l-18.81,18.81C182.74,287.73,181.5,268.91,181.5,250z
	 M285.35,224.84v52.33c0,16.94-13.79,30.73-30.73,30.73h-9.22c-12.1,0-22.55-7.04-27.56-17.22l67.43-67.43
	C285.3,223.77,285.35,224.3,285.35,224.84z M214.67,276.83v-51.99c0-16.94,13.79-30.73,30.73-30.73h9.22
	c11.56,0,21.64,6.42,26.89,15.88L214.67,276.83z M255.34,474.13c-1.81,3.01-4.76,3.34-5.95,3.34c-1.19,0-4.14-0.32-5.95-3.34
	c-7.59-12.63-14.5-25.62-20.73-38.9h53.36C269.84,448.51,262.92,461.49,255.34,474.13z M317.28,250c0,59.88-12.27,118.83-35.8,173.2
	H217.3c-14.12-32.63-24.17-66.9-29.96-102.03l21.67-21.67c7.53,12.23,21.01,20.42,36.39,20.42h9.22c23.58,0,42.76-19.18,42.76-42.76
	v-52.33c0-4.16-0.63-8.17-1.74-11.97l18.13-18.12C316.09,213,317.28,231.45,317.28,250z M429.49,100.25
	c-0.58,0.67-1.33,1.32-2.06,1.93c-4.95,4.14-22.5,18.59-40.48,30.76c-29.26,19.8-36.67,18.12-37.56,17.81
	c-0.26-1.1-1.03-8.99,17.98-37.38c11.89-17.76,26.07-35.38,30.12-40.36c1.24-1.52,2.31-2.6,3.37-3.41
	c8.33-6.34,20.22-5.53,27.64,1.89C436.33,79.31,436.76,91.94,429.49,100.25z"/>
</svg>
