<?xml version="1.0" encoding="utf-8"?>
<!-- Generator: Adobe Illustrator 28.0.0, SVG Export Plug-In . SVG Version: 6.00 Build 0)  -->
<svg version="1.1" id="Capa_1" xmlns="http://www.w3.org/2000/svg" xmlns:xlink="http://www.w3.org/1999/xlink" x="0px" y="0px"
	 viewBox="0 0 500 500" style="enable-background:new 0 0 500 500;" xml:space="preserve">
<style type="text/css">
	.st0{fill:#FFFFFF;}
</style>
<g>
	<path class="st0" d="M251.04,360.44c-20.95,0-38,17.05-38,38c0,20.95,17.05,38,38,38c20.95,0,38-17.05,38-38
		C289.04,377.49,272,360.44,251.04,360.44z M251.04,421.73c-12.84,0-23.29-10.45-23.29-23.29c0-12.84,10.45-23.29,23.29-23.29
		c12.84,0,23.29,10.45,23.29,23.29C274.34,411.29,263.89,421.73,251.04,421.73z"/>
	<path class="st0" d="M351.6,293.44c-27.69-24.73-63.4-38.34-100.55-38.34c-37.16,0-72.86,13.62-100.55,38.34
		c-3.08,2.75-4.91,6.7-5.03,10.82c-0.12,4.12,1.48,8.14,4.39,11.05l23.07,23.07c5.51,5.52,14.48,5.84,20.42,0.72
		c16.02-13.81,36.51-21.42,57.7-21.42c21.18,0,41.68,7.61,57.7,21.42c2.82,2.43,6.33,3.64,9.82,3.64c3.86,0,7.7-1.46,10.59-4.36
		l23.07-23.07c2.91-2.91,4.51-6.94,4.4-11.05C356.51,300.14,354.68,296.19,351.6,293.44z M341.83,304.91l-23.07,23.07
		c-0.13,0.13-0.31,0.08-0.41-0.02c-18.69-16.11-42.6-24.99-67.3-24.99c-24.71,0-48.61,8.87-67.3,24.99
		c-0.11,0.1-0.29,0.14-0.42,0.02l-23.07-23.07c-0.03-0.03-0.1-0.09-0.09-0.24c0-0.16,0.09-0.24,0.12-0.27
		c24.99-22.32,57.22-34.61,90.75-34.61c33.53,0,65.76,12.29,90.75,34.61c0.03,0.03,0.12,0.11,0.12,0.27
		C341.93,304.82,341.86,304.88,341.83,304.91z"/>
	<path class="st0" d="M251.04,159.33c-62.83,0-122.69,23.63-168.55,66.53c-2.99,2.8-4.75,6.75-4.82,10.83
		c-0.07,4.09,1.49,7.94,4.38,10.83L105,270.46c2.98,2.99,6.87,4.49,10.75,4.49c3.64,0,7.27-1.32,10.15-3.99
		c34.14-31.63,78.58-49.04,125.14-49.04c46.56,0,91.01,17.42,125.14,49.04c5.93,5.5,15.12,5.28,20.9-0.5l22.95-22.94
		c2.89-2.9,4.45-6.74,4.38-10.84c-0.07-4.08-1.83-8.02-4.82-10.82C373.73,182.95,313.88,159.33,251.04,159.33z M409.63,237.12
		l-22.94,22.94c-0.18,0.18-0.44,0.18-0.51,0.11c-36.86-34.15-84.86-52.96-135.14-52.96c-50.28,0-98.28,18.81-135.14,52.96
		c-0.07,0.07-0.33,0.07-0.5-0.11l-22.95-22.94l-5.2,5.2l5.13-5.39c0-0.12,0.06-0.23,0.16-0.33c43.12-40.34,99.42-62.56,158.5-62.56
		c59.09,0,115.38,22.22,158.5,62.56C409.65,236.69,409.71,236.8,409.63,237.12z"/>
	<path class="st0" d="M485.38,156.25c-63.71-59.77-146.93-92.69-234.33-92.69c-88.53,0-172.54,33.66-236.54,94.78
		c-2.92,2.79-4.55,6.55-4.6,10.61c-0.05,4.03,1.56,7.98,4.41,10.83l23.02,23.02c2.94,2.94,6.75,4.41,10.59,4.41
		c3.73,0,7.48-1.4,10.44-4.2c52.22-49.56,120.65-76.86,192.68-76.86c71.9,0,140.24,27.21,192.43,76.62
		c2.97,2.81,6.87,4.24,10.95,4.04c4.08-0.2,7.96-2.09,10.65-5.19L486.39,177C491.7,170.88,491.25,161.76,485.38,156.25z
		 M475.28,167.37l-21.32,24.62c-0.07,0.08-0.16,0.12-0.37,0.09c-54.93-52.01-126.86-80.65-202.54-80.65
		c-75.81,0-147.84,28.73-202.81,80.9c-0.14,0.13-0.35,0.2-0.49,0.06l-23.02-23.02c-0.07-0.07-0.11-0.16-0.06-0.4
		c61.25-58.49,141.65-90.71,226.38-90.71c83.65,0,163.3,31.5,224.27,88.71C475.38,167.04,475.39,167.23,475.28,167.37z"/>
</g>
</svg>
