<?xml version="1.0" encoding="utf-8"?>
<!-- Generator: Adobe Illustrator 28.0.0, SVG Export Plug-In . SVG Version: 6.00 Build 0)  -->
<svg version="1.1" id="Capa_1" xmlns="http://www.w3.org/2000/svg" xmlns:xlink="http://www.w3.org/1999/xlink" x="0px" y="0px"
	 viewBox="0 0 500 500" style="enable-background:new 0 0 500 500;" xml:space="preserve">
<style type="text/css">
	.st0{fill:#FFFFFF;}
</style>
<path class="st0" d="M429.37,162.85V27.4c0-6.34-5.16-11.5-11.5-11.5h-27.08c-6.34,0-11.5,5.16-11.5,11.5v129.29H95.41
	c-29.19,0-52.94,23.74-52.94,52.92v41.69c0,52.42,42.65,95.06,95.08,95.06c32.73,0,65.17-16.42,88.99-45.05
	c8.35-10.04,16.35-15.05,23.97-15.07c7.5,0.04,15.43,5.13,23.57,15.12c23.28,28.6,55.5,45,88.4,45c5.74,0,11.35-0.54,16.81-1.52
	v37.09c0,29.64-24.11,53.75-53.75,53.75h-6.62c-14.62,0-27.66-8.11-34.29-20.53c18.34-2.07,32.65-17.66,32.65-36.54
	c0-20.29-16.51-36.8-36.8-36.8h-51.96c-20.29,0-36.8,16.51-36.8,36.8c0,20.29,16.51,36.79,36.8,36.79h1.73
	c11.37,40.16,48.64,68.72,90.87,68.72h11.85c53.16,0,96.4-43.25,96.4-96.4v-68.95c17.38-17.23,28.16-41.11,28.16-67.46v-41.69
	C457.53,189.37,446.11,171.75,429.37,162.85z M392.45,29.06h23.75v128.92c-3.73-0.84-7.61-1.29-11.59-1.29h-12.16V29.06z
	 M204.89,378.6c0-13.03,10.6-23.63,23.63-23.63h51.96c13.03,0,23.63,10.6,23.63,23.63c0,13.03-10.6,23.63-23.63,23.63h-51.96
	C215.49,402.22,204.89,391.63,204.89,378.6z M416.2,387.71c0,45.89-37.34,83.23-83.23,83.23h-11.85c-35.08,0-66.18-22.89-77.1-55.55
	h26.31c7.61,19.95,26.78,33.45,48.59,33.45h6.62c36.9,0,66.92-30.02,66.92-66.92v-40.44c8.51-2.84,16.49-6.83,23.75-11.82V387.71z
	 M444.36,251.29c0,45.15-36.73,81.89-81.89,81.89c-28.92,0-57.42-14.63-78.19-40.15c-10.74-13.19-22.08-19.91-33.71-19.98
	c-0.05,0-0.11,0-0.16,0c-11.62,0-23.06,6.67-34,19.81c-21.31,25.62-50.06,40.31-78.87,40.31c-45.17,0-81.91-36.73-81.91-81.89
	v-41.69c0-21.92,17.84-39.76,39.77-39.76h309.2c21.92,0,39.75,17.83,39.75,39.76V251.29z"/>
</svg>
