<?xml version="1.0" encoding="utf-8"?>
<!-- Generator: Adobe Illustrator 28.0.0, SVG Export Plug-In . SVG Version: 6.00 Build 0)  -->
<svg version="1.1" id="Capa_1" xmlns="http://www.w3.org/2000/svg" xmlns:xlink="http://www.w3.org/1999/xlink" x="0px" y="0px"
	 viewBox="0 0 500 500" style="enable-background:new 0 0 500 500;" xml:space="preserve">
<style type="text/css">
	.st0{fill:#FFFFFF;}
</style>
<g>
	<path class="st0" d="M453.61,451.7l-20.53,16.82c-10.86,8.9-26.62,8.89-37.48,0l-20.52-16.81c-15.87-13-38.91-13-54.78,0
		l-20.52,16.81c-10.86,8.9-26.62,8.9-37.48,0l-20.52-16.81c-15.87-13-38.91-13-54.79,0l-20.51,16.81c-10.86,8.9-26.63,8.9-37.49,0
		l-20.51-16.8c-15.88-13.01-38.92-13.01-54.79,0l-20.5,16.8c-2.92,2.39-3.34,6.69-0.95,9.61c2.39,2.91,6.69,3.34,9.61,0.95
		l20.5-16.8c10.86-8.9,26.62-8.9,37.49,0l20.51,16.8c15.87,13,38.91,13.01,54.79,0l20.51-16.81c10.86-8.9,26.62-8.9,37.48,0
		l20.52,16.81c15.87,13,38.91,13,54.78,0l20.52-16.81c10.86-8.9,26.62-8.9,37.49,0l20.52,16.81c7.94,6.5,17.66,9.75,27.39,9.75
		c9.73,0,19.46-3.25,27.39-9.75l20.53-16.82c2.92-2.39,3.34-6.69,0.96-9.6C460.83,449.74,456.53,449.31,453.61,451.7z"/>
	<path class="st0" d="M455.87,365.2l-20.53,16.82c-10.86,8.89-26.62,8.89-37.48,0l-20.52-16.81c-15.87-13-38.91-13-54.79,0
		l-20.52,16.81c-10.86,8.9-26.63,8.89-37.49,0l-20.52-16.81c-15.87-13-38.91-13-54.79,0l-20.51,16.81c-10.86,8.9-26.63,8.9-37.49,0
		l-20.51-16.8c-15.88-13-38.92-13-54.79,0l-20.5,16.8c-2.92,2.39-3.34,6.69-0.95,9.61c2.39,2.92,6.69,3.34,9.61,0.95l20.5-16.8
		c10.86-8.9,26.63-8.9,37.49,0l20.51,16.8c15.87,13,38.92,13,54.79,0l20.52-16.81c10.86-8.9,26.62-8.9,37.49,0l20.52,16.81
		c15.87,13,38.91,13,54.79,0l20.52-16.81c10.86-8.9,26.62-8.9,37.48,0l20.52,16.81c7.94,6.5,17.66,9.75,27.39,9.75
		c9.73,0,19.46-3.25,27.39-9.75l20.53-16.82c2.92-2.39,3.34-6.69,0.96-9.6C463.09,363.24,458.79,362.81,455.87,365.2z"/>
	<path class="st0" d="M46.35,306.07l20.5-16.8c10.86-8.9,26.63-8.9,37.49,0l20.51,16.8c15.87,13,38.92,13,54.79,0l20.51-16.81
		c10.86-8.9,26.62-8.9,37.48,0l20.52,16.81c15.87,13,38.91,13,54.78,0l20.52-16.81c10.86-8.9,26.62-8.9,37.49,0l20.52,16.81
		c7.94,6.5,17.66,9.75,27.39,9.75c9.73,0,19.45-3.25,27.39-9.75l20.53-16.82c2.92-2.39,3.34-6.69,0.96-9.6
		c-2.39-2.91-6.69-3.34-9.6-0.96l-20.53,16.82c-10.86,8.9-26.62,8.89-37.48,0L379.6,278.7c-15.87-13-38.91-13-54.78,0l-20.52,16.81
		c-10.86,8.9-26.62,8.9-37.48,0l-20.52-16.81c-15.87-13-38.91-13-54.79,0l-20.51,16.81c-10.86,8.9-26.63,8.9-37.49,0l-20.51-16.8
		c-15.88-13.01-38.92-13.01-54.79,0l-20.5,16.8c-2.92,2.39-3.34,6.69-0.95,9.61C39.13,308.03,43.43,308.45,46.35,306.07z"/>
	<path class="st0" d="M303.44,91.58h22.27c1.14,7.73,4.18,14.84,8.65,20.85l-15.76,15.76c-2.67,2.66-2.67,6.99,0,9.65
		c1.33,1.33,3.08,2,4.83,2s3.49-0.67,4.83-2l15.76-15.76c6.01,4.47,13.12,7.51,20.85,8.65v22.27c0,3.77,3.06,6.83,6.83,6.83
		c3.77,0,6.83-3.06,6.83-6.83v-22.27c7.73-1.14,14.84-4.18,20.85-8.65l15.76,15.76c1.33,1.33,3.08,2,4.83,2c1.75,0,3.49-0.67,4.83-2
		c2.67-2.66,2.67-6.99,0-9.65l-15.76-15.76c4.47-6.01,7.51-13.12,8.65-20.85h22.27c3.77,0,6.83-3.06,6.83-6.83
		c0-3.77-3.06-6.83-6.83-6.83h-22.27c-1.14-7.73-4.19-14.84-8.65-20.85l15.76-15.76c2.67-2.67,2.67-6.99,0-9.65
		c-2.66-2.67-6.99-2.67-9.65,0l-15.76,15.76c-6.01-4.47-13.12-7.51-20.85-8.65V16.5c0-3.77-3.06-6.83-6.83-6.83
		c-3.77,0-6.83,3.06-6.83,6.83v22.27c-7.73,1.14-14.84,4.18-20.85,8.65l-15.76-15.76c-2.66-2.67-6.99-2.67-9.65,0
		c-2.67,2.67-2.67,6.99,0,9.65l15.76,15.76c-4.47,6.01-7.51,13.12-8.65,20.85h-22.27c-3.77,0-6.83,3.06-6.83,6.83
		C296.61,88.52,299.67,91.58,303.44,91.58z M371.69,51.87c18.13,0,32.89,14.75,32.89,32.89s-14.75,32.89-32.89,32.89
		s-32.89-14.75-32.89-32.89S353.56,51.87,371.69,51.87z"/>
	<path class="st0" d="M73.28,154.73c11.92,5.8,26.41,15.65,31.9,24.6c2.38,3.89,2.53,6.95,2.53,6.95c0,3.77,3.06,6.83,6.83,6.83
		c3.77,0,6.83-3.06,6.83-6.83c0-0.56-0.09-4.85-2.58-10.36c6.03-9.99,14.58-17.89,26.73-24.62c3.3-1.83,4.49-5.98,2.66-9.28
		c-1.83-3.3-5.98-4.49-9.28-2.66c-12.17,6.74-21.58,14.88-28.59,24.66c-8.51-8.81-20.83-16.59-31.06-21.56
		c-3.39-1.65-7.47-0.24-9.12,3.15C68.47,149,69.89,153.08,73.28,154.73z"/>
</g>
</svg>
