<?xml version="1.0" encoding="utf-8"?>
<!-- Generator: Adobe Illustrator 28.0.0, SVG Export Plug-In . SVG Version: 6.00 Build 0)  -->
<svg version="1.1" id="Capa_1" xmlns="http://www.w3.org/2000/svg" xmlns:xlink="http://www.w3.org/1999/xlink" x="0px" y="0px"
	 viewBox="0 0 500 500" style="enable-background:new 0 0 500 500;" xml:space="preserve">
<style type="text/css">
	.st0{fill:#FFFFFF;}
</style>
<path class="st0" d="M476.08,243.51l-91.09-22.36c-0.87-3.93-1.91-7.83-3.11-11.67l67.44-64.64l0.29-0.29
	c2.41-2.58,2.82-6.36,1.03-9.4c-1.79-3.04-5.3-4.5-8.72-3.64l-89.99,26.17c-2.72-2.97-5.57-5.82-8.53-8.54l26.1-89.72l0.07-0.27
	c0.86-3.42-0.61-6.93-3.64-8.72c-3.04-1.79-6.81-1.38-9.39,1.03l-64.93,67.73c-3.84-1.2-7.73-2.24-11.65-3.11l-22.27-92.83
	l-0.11-0.41c-1.01-3.37-4.05-5.63-7.56-5.63c-3.51,0-6.55,2.26-7.56,5.63l-22.38,93.23c-3.92,0.86-7.81,1.9-11.65,3.11l-64.64-67.44
	l-0.3-0.29c-2.58-2.41-6.35-2.82-9.39-1.03c-3.04,1.79-4.5,5.29-3.64,8.72l26.17,89.99c-2.97,2.72-5.82,5.57-8.53,8.53l-89.73-26.1
	l-0.27-0.07c-3.42-0.86-6.93,0.6-8.72,3.64c-1.79,3.04-1.38,6.82,1.03,9.4l67.73,64.93c-1.21,3.84-2.25,7.74-3.11,11.67
	l-90.72,22.26l-0.37,0.1c-3.37,1.01-5.63,4.05-5.63,7.56c0,3.51,2.26,6.55,5.63,7.56l91.09,22.36c0.87,3.93,1.91,7.83,3.11,11.67
	L50.69,357.3l-0.29,0.29c-2.41,2.58-2.82,6.36-1.03,9.4c1.45,2.46,4.02,3.88,6.76,3.88c0.65,0,1.31-0.08,1.96-0.24l89.99-26.17
	c2.72,2.97,5.57,5.82,8.53,8.53l-26.1,89.73l-0.07,0.27c-0.86,3.42,0.6,6.93,3.64,8.72c1.26,0.74,2.65,1.11,4.02,1.11
	c1.94,0,3.86-0.73,5.37-2.14l64.93-67.73c3.85,1.21,7.75,2.25,11.67,3.11l22.26,90.72l0.1,0.37c1.01,3.37,4.05,5.63,7.56,5.63
	c3.51,0,6.55-2.26,7.56-5.63l22.36-91.09c3.93-0.87,7.83-1.91,11.67-3.11l64.64,67.44l0.3,0.29c1.51,1.41,3.43,2.14,5.37,2.14
	c1.37,0,2.76-0.36,4.02-1.11c3.04-1.79,4.5-5.3,3.64-8.72l-26.17-89.99c2.97-2.72,5.82-5.57,8.53-8.53l89.73,26.1l0.27,0.07
	c0.65,0.16,1.31,0.24,1.96,0.24c2.74,0,5.31-1.43,6.76-3.88c1.79-3.04,1.38-6.82-1.03-9.4l-67.73-64.93
	c1.21-3.84,2.25-7.74,3.11-11.67l90.72-22.26l0.37-0.1c3.37-1.01,5.63-4.05,5.63-7.56C481.71,247.56,479.45,244.52,476.08,243.51z
	 M371.2,273.47c-1.17,6.37-2.86,12.71-5.02,18.81c-0.63,1.78-1.3,3.54-2.01,5.28c-4.96,12.18-11.82,23.43-20.43,33.49
	c-4.2,4.93-8.83,9.56-13.77,13.77c-1.44,1.23-2.9,2.42-4.38,3.58c-10.39,8.1-21.93,14.43-34.37,18.85
	c-6.12,2.16-12.45,3.85-18.83,5.02c-10.96,2.03-22.45,2.53-33.68,1.52c-3.74-0.34-7.46-0.85-11.12-1.52
	c-6.37-1.17-12.7-2.86-18.81-5.02c-1.78-0.63-3.54-1.3-5.28-2.01c-2.16-0.88-4.28-1.84-6.39-2.84c-8.05-3.83-15.65-8.49-22.71-14
	c-1.48-1.16-2.94-2.35-4.38-3.57l-0.04-0.03c-4.92-4.2-9.54-8.82-13.74-13.75c-1.23-1.44-2.42-2.9-3.58-4.38
	c-1.34-1.72-2.62-3.49-3.87-5.27c-6.26-8.98-11.29-18.72-14.98-29.11c-2.16-6.11-3.85-12.44-5.02-18.82
	c-1.35-7.31-2.04-14.84-2.04-22.39c0-1.98,0.05-3.96,0.15-5.94c0.26-5.56,0.89-11.07,1.89-16.47c1.17-6.37,2.86-12.71,5.02-18.81
	c0.63-1.78,1.3-3.54,2.01-5.28c4.96-12.18,11.82-23.43,20.43-33.49c4.2-4.93,8.83-9.56,13.77-13.77
	c11.49-9.83,24.53-17.37,38.76-22.43l0.02-0.01c6.12-2.16,12.44-3.85,18.81-5.01c14.17-2.62,29.24-2.68,43.47-0.21
	c0.44,0.08,0.89,0.13,1.33,0.21c6.37,1.17,12.7,2.86,18.81,5.02c10.07,3.58,19.52,8.42,28.27,14.42c0.53,0.36,1.07,0.7,1.59,1.07
	c3.06,2.17,6.03,4.48,8.9,6.94l0.04,0.03c4.92,4.2,9.54,8.82,13.74,13.75c1.23,1.44,2.42,2.9,3.58,4.38
	c1.34,1.72,2.62,3.49,3.87,5.27c6.26,8.98,11.29,18.72,14.98,29.11c2.16,6.11,3.85,12.44,5.02,18.82c1.35,7.31,2.04,14.84,2.04,22.4
	C373.24,258.62,372.55,266.16,371.2,273.47z M417.93,154.12l-41.85,40.11c-0.08-0.18-0.17-0.35-0.26-0.53
	c-0.61-1.34-1.27-2.66-1.92-3.99c-0.33-0.66-0.63-1.33-0.97-1.98c-2.03-3.93-4.24-7.75-6.63-11.46c-0.38-0.59-0.79-1.17-1.18-1.76
	c-0.84-1.26-1.68-2.51-2.56-3.74c-0.11-0.15-0.21-0.31-0.32-0.47L417.93,154.12z M346.95,83.14l-16.2,55.69
	c-0.16-0.11-0.32-0.22-0.48-0.33c-1.2-0.86-2.43-1.68-3.66-2.5c-0.61-0.41-1.21-0.84-1.83-1.24c-1.82-1.18-3.67-2.31-5.55-3.4
	c-0.09-0.05-0.18-0.1-0.27-0.15c-1.85-1.07-3.73-2.09-5.63-3.07c-0.66-0.34-1.34-0.65-2.01-0.99c-1.31-0.65-2.62-1.3-3.96-1.91
	c-0.18-0.08-0.35-0.18-0.53-0.26L346.95,83.14z M250,55.65l13.88,57.86c-0.24-0.02-0.48-0.03-0.71-0.05
	c-1.07-0.1-2.15-0.17-3.23-0.24c-1.16-0.08-2.33-0.18-3.49-0.24c-0.67-0.03-1.33-0.03-2-0.05c-1.48-0.05-2.96-0.11-4.45-0.11
	c-1.45,0-2.91,0.06-4.36,0.11c-0.7,0.02-1.4,0.02-2.1,0.05c-1.14,0.05-2.28,0.15-3.42,0.23c-1.1,0.08-2.2,0.14-3.3,0.25
	c-0.23,0.02-0.47,0.03-0.7,0.05L250,55.65z M193.17,124.99c-0.18,0.08-0.35,0.17-0.53,0.25c-1.35,0.62-2.69,1.28-4.02,1.94
	c-0.65,0.32-1.31,0.62-1.95,0.95c-3.93,2.03-7.75,4.24-11.46,6.63c-0.6,0.39-1.18,0.8-1.77,1.2c-1.25,0.83-2.49,1.67-3.71,2.54
	c-0.16,0.11-0.32,0.21-0.47,0.33l-16.2-55.69L193.17,124.99z M137.76,170.32c-0.11,0.16-0.22,0.32-0.33,0.48
	c-0.86,1.2-1.67,2.41-2.49,3.63c-0.41,0.62-0.85,1.23-1.25,1.85c-1.17,1.82-2.31,3.67-3.39,5.54c-0.05,0.09-0.1,0.18-0.15,0.26
	c-1.07,1.85-2.09,3.74-3.08,5.64c-0.35,0.67-0.66,1.36-1,2.04c-0.65,1.3-1.29,2.61-1.89,3.93c-0.08,0.18-0.18,0.35-0.26,0.53
	l-41.85-40.11L137.76,170.32z M56.08,251.07l56.35-13.83c-0.02,0.18-0.02,0.37-0.04,0.55c-0.14,1.47-0.24,2.95-0.33,4.43
	c-0.05,0.73-0.11,1.46-0.15,2.19c-0.11,2.21-0.16,4.43-0.16,6.65c0,2.22,0.06,4.44,0.16,6.65c0.03,0.73,0.1,1.45,0.15,2.17
	c0.09,1.49,0.19,2.97,0.33,4.45c0.02,0.18,0.02,0.37,0.04,0.55L56.08,251.07z M82.07,348.01l41.85-40.11
	c0.08,0.17,0.17,0.34,0.25,0.52c0.62,1.37,1.29,2.72,1.96,4.07c0.31,0.63,0.61,1.28,0.93,1.91c2.03,3.93,4.24,7.76,6.64,11.48
	c0.37,0.57,0.76,1.12,1.14,1.69c0.85,1.28,1.71,2.55,2.6,3.8c0.11,0.15,0.21,0.31,0.32,0.46L82.07,348.01z M153.05,419l16.2-55.69
	c0.16,0.11,0.32,0.21,0.47,0.32c1.22,0.87,2.46,1.71,3.71,2.54c0.59,0.4,1.17,0.81,1.77,1.2c3.72,2.4,7.54,4.61,11.47,6.64
	c0.63,0.33,1.28,0.62,1.92,0.94c1.34,0.67,2.68,1.33,4.05,1.95c0.17,0.08,0.34,0.17,0.52,0.25L153.05,419z M250,444.99l-13.82-56.35
	c0.18,0.02,0.37,0.02,0.55,0.04c1.52,0.14,3.04,0.24,4.56,0.34c0.68,0.04,1.36,0.11,2.04,0.14c2.22,0.11,4.45,0.17,6.67,0.17
	c2.23,0,4.45-0.06,6.67-0.17c0.68-0.03,1.35-0.1,2.03-0.14c1.53-0.1,3.06-0.2,4.58-0.34c0.18-0.02,0.36-0.02,0.54-0.04L250,444.99z
	 M306.83,377.14c0.17-0.08,0.33-0.17,0.5-0.24c1.39-0.64,2.77-1.31,4.14-1.99c0.61-0.3,1.23-0.59,1.84-0.9
	c3.94-2.03,7.77-4.25,11.49-6.65c0.58-0.37,1.14-0.77,1.71-1.16c1.27-0.84,2.53-1.69,3.77-2.58c0.15-0.11,0.32-0.21,0.47-0.32
	l16.2,55.69L306.83,377.14z M362.24,331.82c0.11-0.15,0.21-0.32,0.32-0.47c0.87-1.22,1.71-2.46,2.54-3.71
	c0.4-0.59,0.81-1.18,1.2-1.78c1.19-1.84,2.34-3.71,3.44-5.61c0.03-0.04,0.05-0.09,0.08-0.13c1.09-1.88,2.12-3.79,3.12-5.72
	c0.34-0.66,0.65-1.33,0.98-1.99c0.65-1.32,1.31-2.64,1.92-3.98c0.08-0.18,0.17-0.35,0.25-0.52l41.85,40.11L362.24,331.82z
	 M387.57,264.89c0.02-0.18,0.02-0.37,0.04-0.55c0.14-1.47,0.24-2.95,0.33-4.44c0.05-0.73,0.11-1.45,0.15-2.18
	c0.11-2.21,0.16-4.43,0.16-6.65c0-2.22-0.06-4.44-0.16-6.65c-0.03-0.73-0.1-1.45-0.15-2.18c-0.09-1.49-0.19-2.97-0.33-4.45
	c-0.02-0.18-0.02-0.37-0.04-0.55l56.35,13.83L387.57,264.89z"/>
</svg>
