<?xml version="1.0" encoding="utf-8"?>
<!-- Generator: Adobe Illustrator 28.0.0, SVG Export Plug-In . SVG Version: 6.00 Build 0)  -->
<svg version="1.1" id="Capa_1" xmlns="http://www.w3.org/2000/svg" xmlns:xlink="http://www.w3.org/1999/xlink" x="0px" y="0px"
	 viewBox="0 0 500 500" style="enable-background:new 0 0 500 500;" xml:space="preserve">
<style type="text/css">
	.st0{fill:#FFFFFF;}
</style>
<g>
	<path class="st0" d="M215.88,377.63c-0.01-0.63-0.05-1.26-0.09-1.89l-3.2-96.6L212.22,75.9c-0.03-17.75-12.02-33.03-29.14-37.15
		c-52.99-12.77-109.43-2.82-154.85,27.3c-14.68,9.73-20.71,28.19-14.67,44.88l69.09,190.9l30.51,93.3c0.06,0.19,0.1,0.39,0.16,0.58
		l13.11,42.79l0.08,0.25c0.8,2.31,1.8,4.49,2.94,6.56c0,0,0,0,0,0c0.01,0.02,0.02,0.03,0.03,0.05
		c7.31,13.18,21.13,21.33,36.19,21.33c2.35,0,4.74-0.21,7.14-0.62c0.07-0.01,0.13-0.01,0.2-0.02l10.81-1.91
		c0.05-0.01,0.09-0.03,0.13-0.04c17.47-3.14,30.6-16.69,33.58-33.59l0.3-0.98l-0.03-0.88c0.26-1.99,0.42-4.01,0.39-6.08
		L215.88,377.63z M117.23,358.97c-0.24,0.42-0.43,0.85-0.66,1.27l-15.23-46.55c13.82-14.55,30.28-24.34,45.62-27.05
		c20.38-3.59,42.29,5.17,52.13,9.87l1.62,48.85c-0.35-0.31-0.7-0.63-1.06-0.93c-9.45-7.82-21.47-11.14-32.94-9.12l-21.63,3.81
		C133.58,341.16,123.44,348.39,117.23,358.97z M26.79,106.14c-3.83-10.56-0.03-22.23,9.22-28.36
		c42.17-27.96,94.57-37.21,143.77-25.35c10.79,2.6,18.34,12.26,18.36,23.5l0.37,203.46l0.05,1.53c-12.87-5.32-33.77-11.7-54.05-8.13
		c-20.49,3.61-37.13,15.68-48.07,25.95l-0.49-1.49L26.79,106.14z M181.39,450.29l-10.81,1.9c-11.39,2-22.44-3.22-28.23-12.73
		l-0.09-0.38l-0.22-0.29l-14.81-45.95l-0.79-2.42c-2.48-7.89-1.43-16.92,2.93-24.34c4.18-7.12,10.62-11.77,18.14-13.1l21.63-3.81
		c7.53-1.33,15.17,0.84,21.53,6.1c6.7,5.54,10.8,13.77,11.09,22.12l0.06,1.79l-0.01,0.1l1.82,49.05
		C201.56,439.41,192.89,448.26,181.39,450.29z"/>
	<path class="st0" d="M110.7,245.87c0.63,0,1.26-0.08,1.9-0.26c3.74-1.04,5.93-4.93,4.89-8.67L80.12,103.04
		c-1.05-3.75-4.94-5.94-8.67-4.89c-3.74,1.04-5.93,4.93-4.89,8.67l37.36,133.89C104.8,243.83,107.63,245.87,110.7,245.87z"/>
	<path class="st0" d="M168.81,235.62c0.18,0,0.36-0.01,0.55-0.02c3.88-0.3,6.77-3.68,6.48-7.56l-10.69-138.6
		c-0.3-3.88-3.69-6.76-7.56-6.48c-3.88,0.3-6.77,3.68-6.48,7.56l10.69,138.6C162.09,232.81,165.17,235.62,168.81,235.62z"/>
	<path class="st0" d="M471.77,66.05c-45.42-30.12-101.86-40.07-154.85-27.3c-17.12,4.13-29.1,19.4-29.14,37.16l-0.36,203.02
		l-3.2,96.78c-0.04,0.64-0.08,1.29-0.09,1.93l-2.32,44.7l-0.01,0.26c-0.29,20.47,14.1,37.91,34.23,41.53
		c0.05,0.01,0.09,0.03,0.13,0.04l10.81,1.91c0.07,0.01,0.13,0.01,0.2,0.02c2.39,0.41,4.78,0.62,7.14,0.62
		c14.76,0,28.33-7.85,35.74-20.57l1.01-1.34l0.07-0.61c0.89-1.74,1.69-3.54,2.35-5.43l13.19-43.04c0.09-0.25,0.13-0.51,0.22-0.76
		l30.38-92.91l69.16-191.11C492.48,94.24,486.45,75.78,471.77,66.05z M382.77,358.97c-6.21-10.58-16.36-17.81-27.84-19.83
		l-21.63-3.81c-11.48-2.02-23.49,1.3-32.94,9.12c-0.36,0.3-0.71,0.62-1.06,0.93l1.62-48.85c9.84-4.7,31.74-13.47,52.13-9.87
		c15.35,2.71,31.8,12.5,45.62,27.04l-15.22,46.56C383.21,359.83,383.02,359.39,382.77,358.97z M329.42,452.19l-10.81-1.9h0
		c-11.41-2.01-20.03-10.73-22.19-21.68l0.04-0.37l-0.08-0.28l1.79-48.26l0.01-0.49l0-0.02l0.06-1.79
		c0.29-8.35,4.39-16.58,11.09-22.12c6.36-5.26,14-7.43,21.53-6.1l21.63,3.81c7.52,1.33,13.97,5.98,18.14,13.1
		c4.39,7.48,5.43,16.6,2.87,24.53l-0.59,1.8l-15.08,46.74C352.09,448.87,340.93,454.22,329.42,452.19z M473.21,106.14l-69.24,191.31
		l-0.42,1.28c-10.94-10.27-27.58-22.33-48.07-25.95c-20.28-3.57-41.18,2.82-54.05,8.13l0.06-1.76l0.37-203.24
		c0.02-11.24,7.57-20.9,18.36-23.5c49.2-11.85,101.6-2.61,143.77,25.35C473.24,83.91,477.03,95.57,473.21,106.14z"/>
	<path class="st0" d="M428.55,98.16c-3.74-1.05-7.63,1.14-8.67,4.89l-37.36,133.89c-1.04,3.74,1.14,7.62,4.89,8.67
		c0.63,0.18,1.27,0.26,1.9,0.26c3.08,0,5.91-2.04,6.77-5.15l37.36-133.89C434.48,103.08,432.29,99.2,428.55,98.16z"/>
	<path class="st0" d="M342.41,82.97c-3.87-0.28-7.26,2.6-7.56,6.48l-10.69,138.6c-0.3,3.87,2.6,7.26,6.48,7.56
		c0.18,0.01,0.37,0.02,0.55,0.02c3.64,0,6.73-2.8,7.01-6.5l10.69-138.6C349.18,86.65,346.28,83.27,342.41,82.97z"/>
</g>
</svg>
