<?xml version="1.0" encoding="utf-8"?>
<!-- Generator: Adobe Illustrator 28.0.0, SVG Export Plug-In . SVG Version: 6.00 Build 0)  -->
<svg version="1.1" id="Capa_1" xmlns="http://www.w3.org/2000/svg" xmlns:xlink="http://www.w3.org/1999/xlink" x="0px" y="0px"
	 viewBox="0 0 500 500" style="enable-background:new 0 0 500 500;" xml:space="preserve">
<style type="text/css">
	.st0{fill:#FFFFFF;}
</style>
<path class="st0" d="M379.92,150.72c1.83-2.75,2-6.28,0.44-9.19c-1.56-2.92-4.59-4.73-7.9-4.73H196.24l-13.3-38.54
	c4.74-3.15,8.38-7.73,10.33-13.24c4.89-13.81-2.37-29.02-16.18-33.91c-3.52-1.25-7.26-1.72-10.92-1.44l-7.74-22.46
	c-1.21-3.51-5.03-5.37-8.54-4.16c-3.51,1.21-5.37,5.03-4.16,8.54l7.75,22.48c-4.73,3.13-8.37,7.7-10.32,13.2
	c-2.37,6.7-1.99,13.92,1.07,20.33c3.06,6.41,8.43,11.24,15.12,13.61c2.9,1.03,5.88,1.54,8.86,1.54c0.68,0,1.36-0.03,2.03-0.09
	l11.77,34.13h-54.48c-3.31,0-6.33,1.81-7.9,4.73c-1.56,2.92-1.4,6.44,0.44,9.19l123.2,185.25v110.8l-65.94,17.13l-1.02,0.73
	c-2.48,1.78-3.52,4.92-2.58,7.83c0.93,2.9,3.61,4.85,6.66,4.85h139.19c3.05,0,5.73-1.95,6.66-4.85c0.93-2.9-0.1-6.05-2.58-7.83
	l-1.02-0.73l-65.94-17.13v-110.8L379.92,150.72z M156.36,81.83c-1.52-3.17-1.7-6.74-0.53-10.06c1.34-3.79,4.28-6.7,8.13-8.02
	c1.39-0.49,2.83-0.73,4.27-0.73c1.47,0,2.94,0.25,4.38,0.76c3.31,1.17,5.96,3.56,7.47,6.72c1.51,3.17,1.7,6.73,0.53,10.04
	c-1.34,3.8-4.3,6.73-8.12,8.05c-2.83,0.98-5.82,0.97-8.65-0.03C160.53,87.39,157.88,85,156.36,81.83z M211.61,208.85
	c0.02,0,0.04,0,0.06,0c0.12,0,0.24-0.02,0.36-0.03c21.71-1.14,34.3-5.56,46.5-9.86c13.7-4.83,26.64-9.38,53.21-9.38
	c9.32,0,17.47,0.57,25.04,1.74L250,321.81l-76.21-114.59c8.28,1.28,17.07,1.9,27.07,1.9C204.69,209.12,208.25,209.02,211.61,208.85z
	 M364.1,150.24l-19.2,28.88c-9.97-2.01-20.64-2.96-33.16-2.96c-28.87,0-43.51,5.16-57.67,10.15c-10.73,3.78-21.02,7.38-37.73,8.77
	l-15.47-44.83H364.1z M186.66,150.24l15.67,45.42c-0.5,0-0.96,0.02-1.47,0.02c-18.16,0-29.62-2.22-37.65-4.38l-27.31-41.06H186.66z"
	/>
</svg>
