<?xml version="1.0" encoding="utf-8"?>
<!-- Generator: Adobe Illustrator 28.0.0, SVG Export Plug-In . SVG Version: 6.00 Build 0)  -->
<svg version="1.1" id="Capa_1" xmlns="http://www.w3.org/2000/svg" xmlns:xlink="http://www.w3.org/1999/xlink" x="0px" y="0px"
	 viewBox="0 0 500 500" style="enable-background:new 0 0 500 500;" xml:space="preserve">
<style type="text/css">
	.st0{fill:#FFFFFF;}
</style>
<g>
	<path class="st0" d="M439.36,133.48h-27.44l-28.46-46.4c-7.96-12.98-22.36-21.04-37.59-21.04h-69.12
		c-15.22,0-29.63,8.06-37.59,21.04l-28.46,46.4h-52.32h-22.94v-5.46c0-13.9-11.31-25.2-25.2-25.2H80.08
		c-13.9,0-25.2,11.31-25.2,25.2v5.79c-17.83,2.3-31.66,17.54-31.66,35.99v1.11v225.62v1.11c0,20.03,16.3,36.33,36.33,36.33h1.11
		h97.75h280.97c20.64,0,37.43-16.79,37.43-37.43V170.91C476.79,150.27,460,133.48,439.36,133.48z M249.91,93.67
		c5.69-9.27,15.97-15.03,26.85-15.03h69.12c10.87,0,21.16,5.76,26.85,15.03l24.42,39.81H225.49L249.91,93.67z M67.47,128.02
		c0-6.95,5.65-12.6,12.6-12.6h30.17c6.95,0,12.6,5.65,12.6,12.6v5.46H67.47V128.02z M60.64,421.36c-13.69,0-24.83-11.14-24.83-24.83
		V170.91c0-13.69,11.14-24.83,24.83-24.83h74.81h10.33v275.28H60.64z M464.19,396.53c0,13.69-11.14,24.83-24.83,24.83H158.39V146.08
		h44.59h216.67h19.71c13.69,0,24.83,11.14,24.83,24.83V396.53z"/>
	<path class="st0" d="M311.32,186.51c-53.22,0-96.53,43.3-96.53,96.53c0,53.22,43.3,96.53,96.53,96.53
		c53.22,0,96.53-43.3,96.53-96.53C407.84,229.81,364.54,186.51,311.32,186.51z M311.32,366.96c-46.28,0-83.92-37.65-83.92-83.92
		c0-46.28,37.65-83.92,83.92-83.92c46.28,0,83.92,37.65,83.92,83.92C395.24,329.31,357.59,366.96,311.32,366.96z"/>
	<path class="st0" d="M311.32,153.91c-71.2,0-129.13,57.93-129.13,129.13s57.93,129.13,129.13,129.13
		c71.2,0,129.13-57.93,129.13-129.13S382.52,153.91,311.32,153.91z M311.32,399.57c-64.25,0-116.53-52.27-116.53-116.53
		s52.27-116.53,116.53-116.53c64.25,0,116.53,52.27,116.53,116.53S375.57,399.57,311.32,399.57z"/>
	<path class="st0" d="M311.32,217.6c-2.48,0-4.98,0.14-7.44,0.42c-3.46,0.39-5.94,3.51-5.55,6.97c0.39,3.46,3.51,5.95,6.97,5.55
		c1.99-0.22,4.02-0.34,6.02-0.34c29.13,0,52.84,23.7,52.84,52.84c0,3.48,2.82,6.3,6.3,6.3c3.48,0,6.3-2.82,6.3-6.3
		C376.76,246.96,347.4,217.6,311.32,217.6z"/>
	<path class="st0" d="M351.82,102.81h-78.54c-3.48,0-6.3,2.82-6.3,6.3c0,3.48,2.82,6.3,6.3,6.3h78.54c3.48,0,6.3-2.82,6.3-6.3
		C358.13,105.63,355.3,102.81,351.82,102.81z"/>
</g>
</svg>
