<?xml version="1.0" encoding="utf-8"?>
<!-- Generator: Adobe Illustrator 28.0.0, SVG Export Plug-In . SVG Version: 6.00 Build 0)  -->
<svg version="1.1" id="Capa_1" xmlns="http://www.w3.org/2000/svg" xmlns:xlink="http://www.w3.org/1999/xlink" x="0px" y="0px"
	 viewBox="0 0 500 500" style="enable-background:new 0 0 500 500;" xml:space="preserve">
<style type="text/css">
	.st0{fill:#FFFFFF;}
</style>
<path class="st0" d="M460.76,320.45l-29.68-26.85c-7.1-6.42-16.28-10.1-25.85-10.36l-1.71-0.04c-1.31-0.05-2.57,0.12-3.76,0.49
	l-33.1-29.95l-1.15-80.59c-0.16-11.68-5.7-50.35-5.96-52.16C352.78,81.95,311.74,17.9,289.86,12.2
	c-20.02-5.22-59.14-6.32-81.52,0.03c-26.81,7.61-65.86,80.28-69.75,112.96c-1.2,9.95-3.87,35.8-4.05,47.81l-1.15,80.69l-33.15,30
	c-1.2-0.37-2.46-0.55-3.75-0.5l-1.72,0.04c-9.57,0.25-18.75,3.93-25.85,10.36l-29.68,26.85c-2.17,1.97-3.45,4.66-3.59,7.58
	c-0.15,2.92,0.86,5.73,2.82,7.9l11.59,12.81c2.16,2.39,5.14,3.6,8.13,3.6c2.62,0,5.26-0.93,7.35-2.83l29.62-26.8
	c6.99-6.32,11.55-14.96,12.82-24.3l0.28-2.06c0.18-1.29,0.13-2.59-0.12-3.84l25.01-22.63l-2.18,153.26c-0.04,3.6,0.66,7.1,2.09,10.4
	l21.81,50.43c1.02,2.41,2.73,4.46,5,5.96c2.21,1.43,4.76,2.19,7.38,2.19c5.3,0,10.12-3.13,12.29-7.97l22.06-49.34
	c1.8-4.02,2.76-8.5,2.76-12.94v-5.12h92.01v2.73c0,6.05,1.23,11.92,3.65,17.47l20.4,46.79c1.07,2.51,2.85,4.62,5.08,6.07
	c2.26,1.5,4.9,2.3,7.64,2.3c5.6,0,10.61-3.33,12.76-8.47l19.56-46.35c2.46-5.84,3.66-12,3.55-18.3l-2.12-149.08l24.96,22.58
	c-0.25,1.25-0.29,2.54-0.12,3.84l0.28,2.05c1.28,9.34,5.83,17.98,12.82,24.3l29.62,26.8c2.09,1.9,4.72,2.83,7.35,2.83
	c2.99,0,5.97-1.21,8.13-3.6l11.59-12.8c1.96-2.17,2.97-4.98,2.82-7.9C464.21,325.11,462.93,322.42,460.76,320.45z M88.53,315.39
	l-29.62,26.8c-0.45,0.4-1.14,0.37-1.54-0.08l-11.59-12.81c-0.25-0.28-0.29-0.58-0.28-0.78c0.01-0.2,0.08-0.5,0.36-0.75l29.68-26.85
	c5.35-4.84,12.27-7.61,19.48-7.81l1.48-0.04c0.23,0.43,0.49,0.85,0.84,1.23c0.34,0.37,0.72,0.67,1.11,0.94l-0.25,1.82
	C97.24,304.11,93.8,310.62,88.53,315.39z M146.38,173.18c0.16-10.91,2.66-35.71,3.96-46.58c3.63-30.51,40.84-97.19,61.23-102.97
	c20.27-5.76,57.12-4.71,75.3,0.03c14.76,3.84,54.33,60.91,60.98,99.18c0.06,0.39,5.67,39.55,5.82,50.47l0.99,69.56l-34.43-31.16
	v-23.98c0-4.36-3.54-7.9-7.9-7.9h-4.31c-2.06-44.72-24.04-104.79-57.12-104.79h-0.62c-31.86,0-55.49,60.52-57.6,104.79h-5.01
	c-4.36,0-7.9,3.54-7.9,7.9v23.98l-34.38,31.11L146.38,173.18z M186.66,404.92v-3.38h126.67v3.38H186.66z M204.36,389.69v-43.35
	h92.01v43.35H204.36z M191.62,334.49v-23.45h116.76v23.45H191.62z M204.36,299.19v-72.21h92.01v72.21H204.36z M284.99,179.84
	l-20.61-18.65c-2.43-2.2-6.17-2.01-8.37,0.42c-2.19,2.43-2.01,6.17,0.42,8.37l10.9,9.87h-34.68l10.9-9.87
	c2.43-2.2,2.61-5.94,0.42-8.37c-2.2-2.43-5.94-2.61-8.37-0.42l-20.61,18.65h-10.47c2.08-41.43,23.76-92.94,45.75-92.94h0.62
	c22.66,0,43.22,50.43,45.27,92.94H284.99z M198.36,191.69c0.02,0,0.04,0.01,0.06,0.01c0.01,0,0.01,0,0.02,0
	c0.02,0,0.04-0.01,0.06-0.01h3.42L191.62,201v-9.32H198.36z M193.65,215.14l25.91-23.45h60.86l25.91,23.45H193.65z M298.09,191.69
	h4.13c0.02,0,0.04,0.01,0.06,0.01c0.01,0,0.03,0,0.04,0c0.02,0,0.04-0.01,0.05-0.01h6.02V201L298.09,191.69z M192.51,421.88
	c0,2.78-0.6,5.58-1.72,8.1l-22.06,49.34c-0.4,0.9-1.64,1.18-2.35,0.71c-0.27-0.18-0.48-0.42-0.6-0.71l-21.83-50.48
	c-0.77-1.76-1.14-3.63-1.12-5.53l2.34-164.29l37.47-33.9c1.37,1.15,3.12,1.87,5.04,1.87h4.84v72.21h-4.84c-4.36,0-7.9,3.54-7.9,7.9
	v31.35c0,4.36,3.54,7.9,7.9,7.9h4.84v43.35h-6.31c-6.27,0-11.38,5.11-11.38,11.38v4.32c0,6.27,5.11,11.38,11.38,11.38h6.31V421.88z
	 M357.16,419.19c0.08,4.65-0.81,9.21-2.62,13.52l-19.56,46.36c-0.46,1.1-1.86,1.61-2.98,0.86c-0.3-0.19-0.55-0.49-0.7-0.86
	l-20.42-46.84c-1.74-3.99-2.66-8.4-2.66-12.74v-2.73h5.59c6.27,0,11.38-5.11,11.38-11.38v-4.32c0-6.27-5.11-11.38-11.38-11.38h-5.59
	v-43.35h4.12c4.36,0,7.9-3.54,7.9-7.9v-31.35c0-4.36-3.54-7.9-7.9-7.9h-4.12v-72.21h4.12c1.93,0,3.67-0.72,5.04-1.87l37.52,33.95
	L357.16,419.19z M454.21,329.31l-11.59,12.8c-0.4,0.45-1.09,0.48-1.54,0.08l-29.62-26.8c-5.27-4.77-8.7-11.27-9.67-18.32l-0.25-1.82
	c0.4-0.27,0.78-0.57,1.11-0.94c0.34-0.38,0.61-0.8,0.84-1.23l1.47,0.04c7.22,0.19,14.14,2.97,19.49,7.81l29.68,26.85
	c0.28,0.25,0.35,0.55,0.35,0.75C454.51,328.73,454.47,329.03,454.21,329.31z"/>
</svg>
