<?xml version="1.0" encoding="utf-8"?>
<!-- Generator: Adobe Illustrator 28.0.0, SVG Export Plug-In . SVG Version: 6.00 Build 0)  -->
<svg version="1.1" id="Capa_1" xmlns="http://www.w3.org/2000/svg" xmlns:xlink="http://www.w3.org/1999/xlink" x="0px" y="0px"
	 viewBox="0 0 500 500" style="enable-background:new 0 0 500 500;" xml:space="preserve">
<style type="text/css">
	.st0{fill:#FFFFFF;}
</style>
<path class="st0" d="M451.26,269.73c0-0.01,0-0.03-0.01-0.04c0,0,0-0.01,0-0.01c0,0,0-0.01,0-0.01
	c-4.1-29.37-15.31-57.75-32.41-82.08c-2.55-3.62-6.73-5.78-11.2-5.78h-84.87l21.93-74.26c2.75-9.32,9.28-17.24,17.9-21.72
	l68.55-35.61c3.55-1.84,4.93-6.22,3.09-9.77c-1.84-3.55-6.21-4.93-9.77-3.09l-68.55,35.61c-12.1,6.29-21.26,17.39-25.12,30.47
	l-23.14,78.36h-99.36l-29.06-83.89l48.6-16.83l0,0l52.85-18.31l11.02-3.82v0l5.61-1.94l-1.85-5.64c-0.79-2.4-2.19-4.53-4.06-6.17
	c-33.58-29.52-85.94-38.45-136.61-23.31c-2.27,0.65-5.42,1.7-7.44,2.4l0.03,0.1l-0.04-0.1c-2.11,0.73-5.14,1.83-7.31,2.71
	c-49.18,19.46-84.8,58.86-92.95,102.83c-0.45,2.45-0.23,4.99,0.63,7.36l2.03,5.58l5.75-1.99l112.31-38.9l27.69,79.94h-75.28
	c-4.47,0-8.65,2.16-11.2,5.79c-17.28,24.59-28.54,53.3-32.55,83.04c-1.14,8.39-1.72,16.99-1.72,25.57
	c0,104.31,84.86,189.17,189.17,189.17s189.17-84.86,189.17-189.17C453.12,287.3,452.49,278.38,451.26,269.73z M279,50.58
	L232.74,66.6c-12.9-18.53-28.32-32.02-44.09-39.17C222.79,24.05,255.39,32.18,279,50.58z M220.82,70.73L175.3,86.5l-18.12-52.31
	c0.13-0.02,0.28-0.06,0.4-0.08C178.12,30.91,201.88,44.84,220.82,70.73z M116.88,52.3c-7.97,15.37-11.73,35.51-10.41,58.04
	L60.2,126.36C67.39,97.3,87.98,70.75,116.88,52.3z M118.39,106.21c-1.03-31.67,9.21-57.86,27.03-67.88c0.1-0.06,0.24-0.12,0.35-0.18
	l18.12,52.3L118.39,106.21z M120.64,196.29h286.61c14.19,20.3,23.93,43.64,28.43,67.94c-11.08,0.53-22.21-1.26-30.85-5.16
	l-26.79-12.09c-19.49-8.81-46.71-8.81-66.17,0l-26.79,12.09c-15.72,7.11-38.53,7.11-54.24,0l-26.78-12.09
	c-19.47-8.81-46.68-8.82-66.18,0l-26.77,12.09c-5.43,2.46-11.93,4.1-18.85,4.84C96.8,239.72,106.52,216.5,120.64,196.29z
	 M263.95,470.89c-96.32,0-174.69-78.36-174.69-174.68c0-5.89,0.3-11.8,0.88-17.62c9.78-0.69,19.17-2.8,26.94-6.31l26.77-12.09
	c15.72-7.11,38.53-7.11,54.24,0l26.78,12.09c9.74,4.41,21.41,6.61,33.08,6.61c11.67,0,23.35-2.2,33.09-6.61l26.8-12.1
	c15.7-7.11,38.51-7.11,54.24,0l26.79,12.09c11,4.97,25.09,7.2,38.87,6.35c0.59,5.81,0.89,11.69,0.89,17.58
	C438.63,392.52,360.27,470.89,263.95,470.89z"/>
</svg>
