<?xml version="1.0" encoding="utf-8"?>
<!-- Generator: Adobe Illustrator 28.0.0, SVG Export Plug-In . SVG Version: 6.00 Build 0)  -->
<svg version="1.1" id="Capa_1" xmlns="http://www.w3.org/2000/svg" xmlns:xlink="http://www.w3.org/1999/xlink" x="0px"
	y="0px" viewBox="0 0 480.51 221.38" style="enable-background:new 0 0 480.51 221.38;" xml:space="preserve">
	<style type="text/css">
		.st0 {
			fill: #ffffff;
		}

		.st1 {
			fill: #7ACCF2;
		}
	</style>
	<g>
		<g>
			<path class="st0" d="M35.34,164.99c0,6.98-7.33,14.76-17.84,14.76c-11.03,0-16.93-7.09-17.5-10.71l1.62-0.28
			c0.91,3.79,6.06,9.37,13.43,9.37c7.22,0,16.03-0.31,15.25-10.39c-0.43-5.56-6.58-8.88-13.84-11.84
			c-7.61-3.11-15.32-7.76-15.32-14.43c0-7.83,6.27-12.44,16.45-12.44c10.89,0,16.82,6.62,17.56,11.18l-1.57-0.01
			c-0.87-3.5-5.14-9.72-13.48-9.72c-6.89,0-15.34,2.48-14.89,9.44c0.27,4.22,8.4,7.54,14.95,10.12
			C28.57,153.31,35.33,155.96,35.34,164.99z" />
			<path class="st0" d="M87.87,179.63c-1.17,0-10.15,0.01-11.32,0.01l-7.56-24.61H54.95l-11.37,24.61l-1.9-0.01l20.18-43.93
			l3.01-6.82c0.07,0.16,9.91,21.88,9.99,22.05c0.01,0.01,2.37,5.21,2.37,5.22C77.33,156.37,87.76,179.39,87.87,179.63z
			 M68.73,153.88l-5.12-17.83l-8.27,17.81L68.73,153.88z" />
			<path class="st0"
				d="M134.65,179.46L98.7,139.19l0.13,40.45h-1.87l-0.01-50.55l36.39,40.37l-0.37-40.37h1.95L134.65,179.46z" />
			<path class="st0"
				d="M180.61,130.15l-15.33-0.08l-0.13,49.56h-6.61l0.12-49.58L143.4,130l-0.07-0.91h37.26L180.61,130.15z" />
			<path class="st0" d="M306.59,129.07l-0.48,50.55l-5.86,0.01l0.49-38.42l-17.49,29.46l-5.39,8.89l-16.97-36.24l-0.63,36.29h-1.63
			l0.25-50.55l21.7,42.05l18.39-30.07L306.59,129.07z" />
			<path class="st0" d="M390.76,156.8l13.27,22.77h-4.39l-12.17-22.7h-10.63l-0.01,22.58l-6.03,0.11l-0.19-50.55h18.73
			C412.22,128.91,416.25,155.59,390.76,156.8z M402.58,143.2c0-5.85-0.77-12.23-14.19-13.13h-11.57v25.67l13.4,0.14
			C398.86,155.88,402.58,149.05,402.58,143.2z" />
			<path class="st0" d="M425.39,129.1l-0.16,50.54h-6.28l-0.16-50.55L425.39,129.1z" />
		</g>
		<path class="st0" d="M223.69,179.63c-1.17,0-10.15,0.01-11.32,0.01l-7.56-24.61h-14.04l-11.37,24.61l-1.9-0.01l20.18-43.93
		l3.01-6.82c0.07,0.16,9.91,21.88,9.99,22.05c0.01,0.01,2.37,5.21,2.37,5.22C213.15,156.37,223.57,179.39,223.69,179.63z
		 M204.55,153.88l-5.12-17.83l-8.27,17.81L204.55,153.88z" />
		<path class="st0" d="M361.6,179.63c-1.17,0-10.15,0.01-11.32,0.01l-7.56-24.61h-14.04l-11.37,24.61l-1.9-0.01l20.18-43.93
		l3.01-6.82c0.07,0.16,9.91,21.88,9.99,22.05c0.01,0.01,2.37,5.21,2.37,5.22C351.06,156.37,361.48,179.39,361.6,179.63z
		 M342.46,153.88l-5.12-17.83l-8.27,17.81L342.46,153.88z" />
		<path class="st0" d="M480.51,179.63c-1.17,0-10.15,0.01-11.32,0.01l-7.56-24.61h-14.04l-11.37,24.61l-1.9-0.01l20.18-43.93
		l3.01-6.82c0.07,0.16,9.91,21.88,9.99,22.05c0.01,0.01,2.37,5.21,2.37,5.22C469.97,156.37,480.39,179.39,480.51,179.63z
		 M461.37,153.88l-5.12-17.83l-8.27,17.81L461.37,153.88z" />
	</g>
	<g>
		<path class="st0"
			d="M172.81,204.71l0.03,16.73h-3.47l0.05-16.31l-10.53-18.88h3.23l10.1,17.59l8.96-17.59h0.9L172.81,204.71z" />
		<path class="st0" d="M238.47,212.02c0.04-0.16,2.26,0.58,2.48,0.49c-1.82,3.69-4.68,6.52-8.25,7.94l-0.05,0.02
		c-8.05,3.17-16.97-1.7-19.88-10.85c-1.41-4.43-1.22-9.21,0.54-13.46c1.76-4.25,4.82-7.67,8.79-9c7.84-2.61,13.95,0.02,16.58,5.36
		c-0.15,0.21-2.67,0.43-2.67,0.43c-5.58-6.89-9.98-6.62-13.53-5.23l-0.02,0.01c-2.64,1.05-4.76,3.84-5.8,7.66
		c-1.06,3.92-0.92,8.39,0.42,12.59c2.75,8.64,9.87,14.06,15.56,11.82C235.33,218.75,237.45,215.91,238.47,212.02z" />
		<path class="st0"
			d="M296.8,186.99l-9.55-0.05l-0.08,34.5h-4.12l0.07-34.52l-9.52-0.04l-0.04-0.63h23.22L296.8,186.99z" />
		<path class="st0" d="M321.61,211.25c0,4.86-4.56,10.27-11.12,10.27c-6.88,0-10.55-4.94-10.91-7.46l1.01-0.2
		c0.57,2.64,3.77,6.52,8.37,6.52c4.5,0,9.99-0.21,9.5-7.24c-0.27-3.87-4.1-6.18-8.63-8.25c-4.74-2.17-9.55-5.41-9.55-10.05
		c0-5.45,3.91-8.66,10.25-8.66c6.79,0,10.49,4.61,10.95,7.78l-0.98,0c-0.54-2.43-3.2-6.77-8.4-6.77c-4.29,0-9.56,1.73-9.28,6.57
		c0.17,2.94,5.24,5.25,9.32,7.04C317.39,203.12,321.61,204.96,321.61,211.25z" />
		<polygon class="st0" points="263.88,186.2 263.88,203.05 247.52,203.05 247.6,186.2 243.47,186.2 243.46,203.05 230.93,203.05 
		230.93,204.12 230.93,205.77 243.46,205.77 243.46,221.38 247.6,221.38 247.53,205.77 263.99,205.77 264.08,221.38 268.24,221.38 
		268.24,205.77 268.24,203.05 268.24,186.2 	" />
		<path class="st0" d="M211.11,221.43c-0.08-0.17-7.32-16.15-7.39-16.31c0,0-1.64-3.62-1.64-3.62c-0.05-0.12-6.89-15.2-6.93-15.31
		l-2.09,4.74l-14.01,30.5l1.32,0l7.9-17.09h0.27v0.06h9.49l5.23,17.03C204.07,221.44,210.3,221.43,211.11,221.43z M194.27,191.18
		l2.96,10.33h-7.76L194.27,191.18z" />
	</g>
	<g>
		<g>
			<polygon class="st1" points="214.79,88.47 193.47,88.47 193.47,0 214.79,27.58 		" />
			<g>
				<polygon class="st1" points="220.51,35.04 220.51,88.47 243.8,88.47 243.8,65 			" />
				<rect x="193.47" y="94.32" class="st1" width="21.32" height="22.16" />
				<rect x="220.51" y="94.32" class="st1" width="23.3" height="22.16" />
				<polygon class="st1" points="249.52,72.04 249.52,88.47 264.15,88.47 			" />
				<polygon class="st1" points="249.52,94.32 267.16,94.32 287.03,116.48 249.52,116.48 			" />
			</g>
		</g>
	</g>
</svg>